#!OML:ASF X:\für Bonn\!DataBase\2005_08_10_Bjorn_Final\c3d\bjorn.ASF
:FULLY-SPECIFIED
:DEGREES
227
root -14.1329 18.9704 -2.77285 1800.13 -45.9518 -361.975
lowerback 1.06608 3.50516 7.29943
upperback 10.9352 4.30556 -1.61444
thorax 11.9536 2.84645 -5.42547
lowerneck -2.26994 7.89603 9.01231
upperneck 14.8874 11.913 -13.5476
head 6.21367 5.44326 -4.9874
rclavicle 2.5842e-014 4.96962e-016
rhumerus -11.0326 17.9965 -82.6772
rradius 72.0822
rwrist 1.02907
rhand -1.12744 -2.60262
rfingers 7.12502
rthumb 24.51 -31.0541
lclavicle 2.5842e-014 4.96962e-016
lhumerus -24.1303 -12.7683 93.3513
lradius 35.5563
lwrist -16.9676
lhand -23.2703 -10.6203
lfingers 7.12502
lthumb 3.18206 19.3357
rfemur -4.76607 5.61718 22.2384
rtibia 29.5517
rfoot -12.129 29.9627
rtoes 12.4448
lfemur -29.0332 15.95 -24.8788
ltibia 20.5705
lfoot 17.0082 -33.6119
ltoes -12.8916
228
root -14.037 18.985 -2.81805 1800.06 -45.0963 -361.824
lowerback 1.19891 3.48204 7.54295
upperback 10.978 4.25333 -1.4133
thorax 11.9219 2.83279 -5.35154
lowerneck -2.30302 8.36275 8.93583
upperneck 15.3735 12.6545 -13.7974
head 6.47607 5.76603 -4.98519
rclavicle 1.91237e-014 -2.02077e-014
rhumerus -11.2476 17.9435 -82.9087
rradius 68.8932
rwrist 1.56626
rhand 1.32665 -4.05865
rfingers 7.12502
rthumb 26.8605 -32.1706
lclavicle 1.91237e-014 -2.02077e-014
lhumerus -24.298 -12.7309 93.5574
lradius 35.5624
lwrist -17.0717
lhand -23.4251 -10.6322
lfingers 7.12502
lthumb 3.03257 19.3259
rfemur -5.15238 5.29175 22.0472
rtibia 29.6403
rfoot -12.4754 29.2216
rtoes 11.4565
lfemur -29.161 16.8567 -25.2106
ltibia 20.6718
lfoot 16.3873 -33.1409
ltoes -11.2888
229
root -13.9409 19.001 -2.86261 1799.98 -44.2116 -361.647
lowerback 1.33854 3.46175 7.77408
upperback 11.0068 4.20947 -1.23126
thorax 11.8716 2.82244 -5.29147
lowerneck -2.17815 8.75096 8.95826
upperneck 15.6779 13.295 -14.1751
head 6.65875 6.04881 -5.05476
rclavicle -9.06458e-014 1.76918e-014
rhumerus -11.45 17.8386 -83.1516
rradius 65.5982
rwrist 2.15335
rhand 3.38985 -5.36748
rfingers 7.12502
rthumb 28.833 -33.1598
lclavicle -9.06458e-014 1.76918e-014
lhumerus -24.4565 -12.7485 93.7331
lradius 35.5366
lwrist -17.1643
lhand -23.5306 -10.5257
lfingers 7.12502
lthumb 2.93068 19.4339
rfemur -5.50613 4.97649 21.8205
rtibia 29.6793
rfoot -12.6958 28.5029
rtoes 10.5556
lfemur -29.2568 17.6147 -25.5105
ltibia 20.8293
lfoot 15.666 -32.7373
ltoes -10.4667
230
root -13.8458 19.0198 -2.90686 1799.88 -43.2787 -361.442
lowerback 1.46462 3.44418 8.01693
upperback 11.0306 4.17325 -1.09401
thorax 11.8316 2.82046 -5.28558
lowerneck -1.97459 9.07391 9.01046
upperneck 15.833 13.8317 -14.5385
head 6.77117 6.29259 -5.13691
rclavicle 2.16178e-014 5.1684e-015
rhumerus -11.69 17.5679 -83.4821
rradius 62.279
rwrist 2.87073
rhand 5.19526 -6.4997
rfingers 7.12502
rthumb 30.5562 -33.9848
lclavicle 2.16178e-014 5.1684e-015
lhumerus -24.6142 -12.8212 93.8252
lradius 35.4836
lwrist -17.2944
lhand -23.6059 -10.4336
lfingers 7.12502
lthumb 2.85797 19.527
rfemur -5.80462 4.71105 21.5779
rtibia 29.649
rfoot -12.945 27.6964
rtoes 9.43029
lfemur -29.3097 18.3099 -25.816
ltibia 21.0626
lfoot 14.5478 -32.6656
ltoes -11.3314
231
root -13.7512 19.0396 -2.95086 1799.77 -42.3146 -361.188
lowerback 1.5636 3.43224 8.18728
upperback 11.0624 4.14558 -0.947999
thorax 11.8094 2.81555 -5.22694
lowerneck -1.85767 9.3641 9.01774
upperneck 16.0342 14.3216 -14.8471
head 6.90307 6.50931 -5.19401
rclavicle -3.30976e-014 -2.38542e-015
rhumerus -11.9494 17.2385 -83.7568
rradius 58.9144
rwrist 3.65588
rhand 6.69657 -7.21685
rfingers 7.12502
rthumb 31.9868 -34.4254
lclavicle -3.30976e-014 -2.38542e-015
lhumerus -24.7361 -12.9089 93.926
lradius 35.3862
lwrist -17.3943
lhand -23.7054 -10.3989
lfingers 7.12502
lthumb 2.76188 19.563
rfemur -6.08022 4.39866 21.2752
rtibia 29.5601
rfoot -13.1036 26.9196
rtoes 8.57023
lfemur -29.3259 18.8473 -26.1034
ltibia 21.3669
lfoot 13.0267 -32.6988
ltoes -13.9431
232
root -13.6586 19.0626 -2.99275 1799.7 -41.2827 -360.971
lowerback 1.65339 3.40405 8.37948
upperback 11.0296 4.09972 -0.809118
thorax 11.7164 2.80068 -5.19182
lowerneck -1.60768 9.60433 9.05792
upperneck 16.1861 14.7356 -15.1192
head 6.98701 6.70163 -5.2586
rclavicle 5.97348e-014 -2.74323e-014
rhumerus -12.3827 16.7325 -84.0861
rradius 55.5477
rwrist 4.49607
rhand 8.03875 -7.52714
rfingers 7.12502
rthumb 33.2639 -34.4713
lclavicle 5.97348e-014 -2.74323e-014
lhumerus -24.9648 -12.904 93.9914
lradius 35.2811
lwrist -17.5749
lhand -23.6906 -10.3401
lfingers 7.12502
lthumb 2.7762 19.6215
rfemur -6.29881 4.10921 20.9968
rtibia 29.3795
rfoot -13.2715 26.0535
rtoes 7.54802
lfemur -29.3132 19.0517 -26.2498
ltibia 21.7444
lfoot 11.1384 -32.4456
ltoes -17.3891
233
root -13.5647 19.0865 -3.03306 1799.68 -40.1107 -360.755
lowerback 1.69423 3.34036 8.58152
upperback 10.9749 4.00468 -0.680055
thorax 11.621 2.76292 -5.17619
lowerneck -1.37737 9.81563 9.1066
upperneck 16.3012 15.0944 -15.3272
head 7.0523 6.87294 -5.30795
rclavicle -7.95139e-015 2.94201e-014
rhumerus -12.8744 16.1189 -84.4101
rradius 52.1365
rwrist 5.46998
rhand 8.95119 -7.25607
rfingers 7.12502
rthumb 34.1309 -34.0107
lclavicle -7.95139e-015 2.94201e-014
lhumerus -25.1825 -12.999 94.0336
lradius 35.1502
lwrist -17.6912
lhand -23.6681 -10.1518
lfingers 7.12502
lthumb 2.79791 19.8096
rfemur -6.52719 3.70455 20.6979
rtibia 29.1419
rfoot -13.3437 25.2141
rtoes 6.65299
lfemur -29.2036 18.3443 -26.0593
ltibia 22.1899
lfoot 9.32147 -31.2181
ltoes -19.8531
234
root -13.4714 19.1157 -3.07285 1799.67 -38.9207 -360.58
lowerback 1.78356 3.28847 8.79442
upperback 10.8856 3.93063 -0.532874
thorax 11.4583 2.73175 -5.14837
lowerneck -1.16516 9.98042 9.15646
upperneck 16.4969 15.3912 -15.4866
head 7.13545 7.01394 -5.34783
rclavicle -2.40529e-014 1.70955e-014
rhumerus -13.465 15.2306 -84.7393
rradius 48.6843
rwrist 6.40617
rhand 9.30618 -6.54909
rfingers 7.12502
rthumb 34.468 -33.2277
lclavicle -2.40529e-014 1.70955e-014
lhumerus -25.4689 -13.0634 94.1017
lradius 35.007
lwrist -17.8303
lhand -23.552 -9.82385
lfingers 7.12502
lthumb 2.90997 20.136
rfemur -6.67911 3.29639 20.4214
rtibia 28.8415
rfoot -13.39 24.3382
rtoes 5.73348
lfemur -28.7938 16.7331 -25.45
ltibia 22.6865
lfoot 6.80799 -29.0816
ltoes -22.5582
235
root -13.3796 19.1413 -3.11149 1799.68 -37.7059 -360.408
lowerback 1.85754 3.20963 8.97525
upperback 10.7891 3.82165 -0.388057
thorax 11.2873 2.67974 -5.10845
lowerneck -0.981678 10.1452 9.19277
upperneck 16.6541 15.6839 -15.6449
head 7.21058 7.15243 -5.38373
rclavicle -1.92821e-014 1.86858e-014
rhumerus -13.9806 14.1429 -85.0824
rradius 45.1443
rwrist 7.22949
rhand 9.12851 -5.67158
rfingers 7.12502
rthumb 34.2993 -32.3884
lclavicle -1.92821e-014 1.86858e-014
lhumerus -25.7577 -13.054 94.1162
lradius 34.8435
lwrist -17.9714
lhand -23.3798 -9.5307
lfingers 7.12502
lthumb 3.07636 20.4269
rfemur -6.81507 2.8645 20.1355
rtibia 28.5108
rfoot -13.4019 23.4857
rtoes 4.95052
lfemur -28.4286 15.1931 -24.8805
ltibia 23.2303
lfoot 4.80526 -26.8598
ltoes -24.2644
236
root -13.2902 19.1656 -3.14848 1799.68 -36.4729 -360.247
lowerback 1.9101 3.13859 9.17454
upperback 10.732 3.72068 -0.26737
thorax 11.1817 2.63812 -5.10159
lowerneck -0.99347 10.2936 9.18365
upperneck 16.86 15.9341 -15.6778
head 7.31692 7.26421 -5.36457
rclavicle 5.14852e-014 -1.82882e-014
rhumerus -14.3698 12.7681 -85.3909
rradius 41.7533
rwrist 7.98036
rhand 8.89067 -5.08086
rfingers 7.12502
rthumb 34.0734 -31.8483
lclavicle 5.14852e-014 -1.82882e-014
lhumerus -25.9847 -13.1884 94.0707
lradius 34.6893
lwrist -18.0045
lhand -23.1436 -9.16539
lfingers 7.12502
lthumb 3.3044 20.7887
rfemur -6.90972 2.40636 19.8413
rtibia 28.1685
rfoot -13.3347 22.7041
rtoes 4.27275
lfemur -28.0958 14.0354 -24.4163
ltibia 23.7932
lfoot 3.49413 -24.8705
ltoes -24.7152
237
root -13.2012 19.1901 -3.18397 1799.71 -35.2168 -360.114
lowerback 1.9427 3.06493 9.40769
upperback 10.6684 3.61591 -0.169773
thorax 11.0858 2.59934 -5.13811
lowerneck -1.04796 10.413 9.1935
upperneck 17.0645 16.136 -15.6805
head 7.42297 7.35366 -5.34107
rclavicle 8.20981e-014 -3.97569e-015
rhumerus -14.8424 11.3434 -85.6741
rradius 38.6948
rwrist 8.13708
rhand 8.4862 -4.74299
rfingers 7.12502
rthumb 33.6892 -31.5952
lclavicle 8.20981e-014 -3.97569e-015
lhumerus -26.1536 -13.3065 93.958
lradius 34.5245
lwrist -18.0551
lhand -22.813 -8.75223
lfingers 7.12502
lthumb 3.62369 21.1967
rfemur -7.01737 1.93985 19.5655
rtibia 27.862
rfoot -13.3639 21.8598
rtoes 3.37782
lfemur -27.8032 13.1184 -24.005
ltibia 24.3524
lfoot 2.67646 -22.9872
ltoes -24.3016
238
root -13.1151 19.2118 -3.21883 1799.72 -33.9228 -359.911
lowerback 1.95331 3.00293 9.56459
upperback 10.5807 3.5325 -0.0979273
thorax 10.9722 2.56409 -5.15807
lowerneck -1.12643 10.496 9.21887
upperneck 17.2959 16.2825 -15.6458
head 7.53254 7.41766 -5.31254
rclavicle 4.25399e-014 -1.27222e-014
rhumerus -15.4593 9.6004 -85.9163
rradius 35.9528
rwrist 8.21604
rhand 8.07941 -4.47008
rfingers 7.12502
rthumb 33.3025 -31.406
lclavicle 4.25399e-014 -1.27222e-014
lhumerus -26.3393 -13.5851 93.852
lradius 34.3379
lwrist -18.0312
lhand -22.5157 -8.39081
lfingers 7.12502
lthumb 3.91082 21.553
rfemur -7.16052 1.45269 19.2223
rtibia 27.5997
rfoot -13.3645 21.048
rtoes 2.6868
lfemur -27.5135 12.2671 -23.6697
ltibia 24.8776
lfoot 2.25201 -21.1254
ltoes -22.8156
239
root -13.0317 19.2337 -3.25244 1799.73 -32.6218 -359.591
lowerback 1.87424 2.94917 9.5871
upperback 10.4974 3.45822 -0.0461309
thorax 10.9063 2.524 -5.11985
lowerneck -1.26544 10.5614 9.19099
upperneck 17.5521 16.4068 -15.5985
head 7.65265 7.46444 -5.27054
rclavicle -9.66093e-014 3.4191e-014
rhumerus -16.0856 7.55799 -86.0556
rradius 33.357
rwrist 8.42625
rhand 7.60538 -4.17351
rfingers 7.12502
rthumb 32.8517 -31.2049
lclavicle -9.66093e-014 3.4191e-014
lhumerus -26.4899 -13.7957 93.7349
lradius 34.1692
lwrist -18.0034
lhand -22.0671 -8.08907
lfingers 7.12502
lthumb 4.34402 21.8464
rfemur -7.35618 0.994017 18.7632
rtibia 27.3825
rfoot -13.4641 20.1962
rtoes 1.6485
lfemur -27.2558 11.4861 -23.4689
ltibia 25.3854
lfoot 1.92702 -19.371
ltoes -20.7121
